<svg width="223" height="317" viewBox="0 0 223 317" fill="none" xmlns="http://www.w3.org/2000/svg">
<path d="M108.203 0.0249087C111.289 -0.0518926 114.377 0.0489957 117.451 0.326353C127.244 1.25141 140.76 4.72501 148.132 11.4311C150.147 13.2668 152.012 16.1951 153.842 18.393C159.332 19.4115 168.077 21.982 171.654 26.2062C176.103 31.4598 174.002 30.6454 180.76 33.256C185.209 34.9753 188.535 40.6944 190.02 45.32C191.538 46.2393 193.018 46.776 194.667 47.8619C199.754 51.2087 202.62 56.4608 203.859 62.3241C204.35 64.6506 204.289 66.8972 205.579 68.974C206.552 70.5404 207.908 71.8921 209.227 73.1608C212.912 76.7037 214.05 79.0652 215.587 83.7916C217.358 89.2458 216.359 93.745 217.803 98.9503C218.343 100.892 222.399 103.61 223 105.293C222.582 107.153 219.97 108.88 218.705 110.632C219.025 118.699 218.453 128.323 213.393 134.766C207.974 141.664 208.824 140.774 208.081 149.237C207.458 156.318 204.277 165.349 200.602 171.469C199.109 173.954 195.264 177.398 194.951 180.521C195.415 188.101 198.914 195.718 199.925 203.391C201.367 214.317 199.139 218.746 192.793 227.163C193.016 234.977 193.118 240.041 188.139 246.606C186.902 248.235 185.292 249.82 184.171 251.339L184.039 251.517C183.704 263.854 179.052 271.048 167.654 275.918C167.16 276.774 166.586 278.004 166.195 278.909C162.464 287.546 155.073 293.351 146.778 297.328C144.621 298.362 140.284 299.03 138.571 300.488C130.501 307.356 122.702 312.289 113.141 316.9C108.997 318.13 93.6185 307.652 89.575 304.663C84.9452 301.239 83.438 298.817 77.1303 297.658C74.286 297.137 68.3655 293.39 66.0699 291.46C61.3952 287.637 58.1562 282.378 57.5331 276.243C53.8262 274.406 50.1201 272.442 47.2354 269.429C41.401 263.334 41.0497 259.285 41.0497 251.498C31.8961 244.911 29.2243 236.866 30.668 225.788C20.4493 215.107 20.2437 206.744 24.9825 193.03C27.038 187.079 28.2576 184.662 28.3182 178.393C26.9622 176.341 24.5774 174.252 22.8947 171.694C15.8536 160.99 14.6795 151.842 13.905 139.633C7.33152 132.337 4.85819 127.043 4.62752 116.842C4.59332 115.328 5.12168 111.421 4.8394 110.271C4.30727 108.106 0.766672 107.757 0 104.92C0.370157 102.736 4.75223 101.72 5.66784 99.3473C6.51634 97.1477 6.44898 93.8282 6.47194 91.4501C6.53868 84.5396 8.78304 78.2973 13.6468 73.3204C15.3327 71.5955 17.1706 70.2305 18.93 68.461C19.1951 67.4997 19.4941 65.8061 19.6158 64.8226C20.7466 55.6876 26.2305 47.6988 33.7961 42.6318C35.8612 41.2486 38.8524 40.2912 40.7176 38.5042C42.4345 36.8997 43.2565 34.5149 44.6374 32.6521C51.2998 23.6647 59.0382 20.3478 69.5574 18.6457C70.9589 16.9582 71.9308 15.2773 73.5216 13.4681C81.5853 4.29654 96.3314 0.666986 108.203 0.0249087ZM136.277 193.379C131.075 191.53 124.219 189.742 118.856 191.924C114.343 193.761 113.898 199.441 116.026 203.242C117.957 206.661 121.334 207.407 124.835 208.312C123.383 206.678 123.031 205.817 122.235 203.863C124.495 205.321 125.7 205.724 128.185 206.688C131.974 208.153 138.251 208.594 140.919 211.71C143.57 214.804 139.886 220.601 140.421 223.267C141.931 230.763 151.579 235.492 150.636 244.202C150.204 248.21 147.98 250.463 145.044 252.87C148.76 238.153 134.918 229.925 121.92 230.106C126.223 233.341 129.98 236.937 130.222 242.609C130.308 244.646 130.371 246.161 129.501 248.078L129.228 248.115C128.082 245.129 127.251 242.521 125.238 240.002C118.79 231.935 103.202 229.215 95.9324 237.541C95.8638 237.59 95.7951 237.641 95.7267 237.69C95.68 237.724 95.6348 237.758 95.5907 237.792C95.6347 237.758 95.68 237.724 95.7267 237.69C94.0378 241.376 94.6585 243.24 96.4311 246.682C95.7038 246.177 94.3505 245.296 93.6642 244.684L93.5363 244.566C88.6136 239.926 88.2849 234.748 91.7215 229.12C82.6676 232.173 77.5744 237.58 77.5793 247.428L77.2749 247.482C73.1394 243.412 73.7601 237.377 76.4063 232.711C72.9163 233.579 69.2942 234.77 67.3412 238.067C66.182 240.026 65.7631 243.174 66.5085 245.376C69.5217 254.271 85.1685 256.551 79.7039 268.485C77.7501 272.751 70.9817 275.864 72.6211 281.551C74.7195 288.189 84.8253 289.802 90.0279 292.639C76.3947 270.717 100.338 278.366 93.2075 260.715L93.0334 260.293C92.1801 258.586 90.1536 256.198 88.9207 254.604C90.9106 256.157 92.8821 257.735 94.8348 259.334V259.335C95.3559 259.75 95.8484 260.201 96.3089 260.682C101.512 266.039 103.995 271.535 98.769 277.655C97.0137 279.71 95.0257 283.614 95.3139 286.25C97.0083 301.75 112.107 293.062 111.988 310.037C114.783 308.166 117.163 305.164 117.906 301.711C119.227 295.251 112.538 293.101 109.554 288.857C107.573 286.257 108.675 281.331 110.92 279.176C118.018 272.357 121.457 268.944 115.461 259.449L115.169 258.992L112.081 255.113C113.508 255.951 114.939 256.781 116.376 257.598C116.127 257.706 115.945 257.778 115.806 257.842C115.945 257.778 116.128 257.707 116.376 257.598C120.992 260.179 131.517 266.303 127.332 272.993C125.018 276.691 119.286 279.147 120.916 284.795C123.633 292.822 130.44 292.225 127.774 303.342C133.758 300.177 139.387 292.257 136.015 285.22C135.458 284.058 133.624 282.29 132.683 281.302C140.88 277.594 147.88 270.95 144.853 261.125C142.808 257.038 142.625 257.7 139.466 255.108C143.508 256.297 148.595 258.861 150.606 262.819L150.7 263.008C151.347 263.547 152.176 265.682 152.415 266.545C154.66 274.614 150.915 279.805 145.713 285.235C157.79 282.207 164.683 272.636 160.722 259.919C159.897 257.268 157.311 254.748 157.174 251.774C156.945 246.731 160.033 242.325 159.874 237.265C159.872 230.279 152.999 224.512 148.308 219.843C154.145 208.508 147.472 197.359 136.277 193.379ZM58.76 233.187C52.8035 239.263 51.0704 249.314 57.5718 255.309C64.1606 261.382 68.161 263.234 63.6915 273.164L63.9421 273.325C78.3025 266.721 67.2527 255.646 61.859 248.054C59.537 244.786 58.8768 240.552 58.8135 236.68C58.8103 235.883 59.1496 233.63 58.76 233.187ZM114.595 11.6795C108.413 10.8528 102.689 9.7497 96.5523 11.5156C90.2153 13.3393 85.8671 16.8571 82.8229 22.6552C89.0243 22.4224 88.6278 22.4945 91.5688 27.7922C93.4573 31.1939 98.7599 33.2784 102.326 34.5759C94.2914 38.025 86.324 34.8121 78.8382 31.5696C69.7091 27.6156 61.8129 28.9531 56.1115 37.5388C62.4212 40.9698 65.9702 40.9631 72.9604 39.1697C68.6719 48.5174 59.1621 47.4841 50.8784 46.1354C48.3967 46.0048 45.871 46.7676 43.9264 48.2083C41.017 50.364 40.4668 51.4757 41.7875 54.8291C43.5961 59.4212 48.0953 60.7053 52.2895 62.0929C48.1542 64.0447 43.1764 65.8269 38.5721 64.2298C36.6239 63.5669 35.0412 62.118 34.2075 60.2345C33.797 59.2902 33.5538 57.9667 33.3471 56.9382C30.0652 61.9316 28.61 66.7462 29.8033 72.7003C31.3905 80.6188 36.0665 83.9174 42.9915 86.9394C43.0111 83.0023 42.9761 80.7782 45.2177 77.285C48.3229 72.4462 52.431 70.9286 57.524 68.8412C54.973 72.911 51.9017 78.2947 52.8636 83.3923C53.7201 87.9294 59.4743 86.4906 62.4818 85.4078C66.7605 83.9393 70.8673 80.732 72.8621 76.6329L72.9599 76.4361C68.4982 60.4819 70.281 54.2851 86.4345 48.7844C78.4397 57.5688 74.7574 67.8985 84.5729 77.2435C87.0132 79.567 90.5257 80.5178 92.7003 82.9045C89.1739 85.3643 85.2935 86.7762 80.9303 85.9978C79.7783 85.7835 78.645 85.4777 77.5416 85.0834C74.3221 87.8876 72.2591 89.3002 68.4417 91.3545C62.4181 94.5959 49.4191 98.4163 48.5424 106.562C48.0321 111.306 52.451 113.407 53.6734 118.952L53.5775 119.296C53.2633 120.391 53.1797 120.705 52.6307 121.712C51.5007 123.783 47.0596 127.263 47.5551 129.607C49.8131 130.615 57.6614 125.305 61.0659 124.398C69.3648 121.007 99.7045 121.337 102.849 131.893C105.126 139.537 104.934 157.023 103.709 165.604C103.257 167.741 102.795 170.701 102.188 172.738C100.167 179.53 100.95 182.667 107.902 185.438C115.775 188.576 121.947 175.348 129.555 185.019C132.13 181.73 132.514 179.836 132.507 175.71C135.673 180.347 135.595 182.737 133.293 187.776C142.221 191.136 149.089 193.651 153.773 202.921C156.204 206.976 155.772 214.231 157.622 218.015C161.201 225.348 172.397 230.458 168.052 240.594C165.377 246.836 160.092 249.818 166.701 256.838C169.74 260.069 169.899 263.219 169.188 267.509C177.764 262.563 178.624 251.605 172.794 244.074C175.377 236.037 176.912 232.028 174.155 223.8C173.305 221.853 172.966 221.424 171.654 219.659C176.792 222.987 179.475 225.686 180.848 231.852C180.811 231.817 180.773 231.775 180.734 231.726C180.695 231.678 180.655 231.623 180.614 231.561C180.572 231.5 180.53 231.432 180.487 231.359C180.4 231.212 180.309 231.042 180.214 230.854C180.452 231.325 180.663 231.679 180.848 231.852C181.74 235.763 181.532 239.843 180.249 243.641C185.864 238.72 187.694 233.126 186.538 225.656C186.201 223.48 185.515 222.235 184.266 220.496C185.698 220.725 187.081 220.75 188.527 220.816C192.766 213.735 191.005 205.318 184.613 200.243C182.988 198.949 181.324 197.685 179.709 196.383C171.065 189.425 170.816 180.066 178.026 171.914C177.185 185.381 183.193 189.677 192.258 198.059C188.288 186.039 184.349 171.85 183.289 159.144C182.734 147.709 185.534 137.237 187.213 125.955C188.029 120.475 189.341 110.966 185.089 106.339C184.503 105.702 180.506 105.632 179.391 105.517C169.401 104.485 164.128 96.4735 161.05 87.6956C148.166 93.6605 140.137 91.3914 131.06 80.4495C129.634 81.5927 128.387 82.5424 126.789 83.472C116.273 89.5993 100.828 87.546 94.3562 76.535C93.1675 74.5123 92.0046 70.2036 92.549 67.7281L92.6072 67.4945C93.2195 62.1893 96.5593 58.2297 100.617 55.0426C99.5087 59.1791 99.5277 61.0449 100.295 65.1909L99.9806 65.242C99.8669 64.7857 99.7636 64.3683 99.6709 63.9799V63.9804C99.7636 64.3688 99.8669 64.7862 99.9806 65.2425L100.295 65.1909C104.873 76.9292 116.781 83.4095 128.223 76.3578C127.683 74.9089 127.456 74.1213 126.357 72.9458C124.322 70.7692 121.502 69.7657 119.049 68.1519C113.544 64.5297 111.186 59.6983 114.069 53.3371C115.736 49.659 118.104 48.2818 121.451 46.3676C120.249 49.6041 118.871 53.5645 120.415 56.9602C122.927 62.3419 129.861 62.4962 133.707 66.3786C135.402 68.089 135.573 70.8813 136.292 73.1427C139.649 83.7164 154.59 87.0481 161.458 77.896C157.104 73.6781 153.136 70.691 152.899 63.8036C152.718 58.6138 155.301 55.0436 158.372 51.1573C158.289 54.8738 157.925 58.5965 159.107 62.1311C163.346 74.7959 176.169 77.2021 185.85 69.3725C182.781 79.7275 177.796 79.8608 168.805 82.4851C170.351 87.9094 172.846 91.8445 177.816 94.7483C184.562 98.6896 194.819 98.088 198.684 90.3675C199.009 89.719 199.288 89.0487 199.52 88.3616C195.273 90.0042 192.769 90.5113 188.342 88.5527L188.017 88.4065C197.379 84.8628 199.696 76.7635 196.199 67.8285C194.088 62.4415 190.465 56.7279 185.397 53.7255C185.038 59.4581 182.876 61.5276 177.765 63.7157C182.043 47.39 171.661 33.9867 156.447 28.9531C156.987 31.4114 157.544 33.7075 157.241 36.2456C156.591 41.7063 151.965 45.7597 146.768 46.852C144.643 47.2991 142.405 47.1561 140.223 47.0761C160.742 35.2318 141.716 12.4904 123.041 12.3402C124.798 14.1492 127.048 16.3115 128.563 18.2807C132.687 23.6473 135.761 32.6989 132.736 39.1845C130.718 32.1352 127.564 28.011 121.04 24.2871C117.043 22.0061 108.611 19.5609 103.9 19.0465C106.962 15.9492 110.453 13.197 114.595 11.6795ZM148.244 260.641V260.64V260.641ZM144.807 260.199V260.2V260.199ZM93.7578 244.377V244.377V244.377ZM50.897 186.739C53.9247 202.424 51.1829 206.336 42.8011 219.253C37.8851 226.831 40.014 235.9 46.5706 242.127L47.1953 242.634L47.4019 242.352C46.4717 237.744 45.926 233.916 46.8794 229.217C47.7221 225.062 49.6171 221.645 51.7498 218.03C56.804 209.946 58.2607 202.337 54.4455 193.35C53.8873 192.034 52.0397 187.646 50.897 186.739ZM94.3037 239.741C94.2835 239.822 94.2657 239.904 94.2507 239.987L94.2755 239.864C94.2843 239.823 94.2936 239.782 94.3037 239.741ZM94.8467 238.551L94.8472 238.552L94.8467 238.551ZM95.1231 238.216V238.217V238.216ZM68.9494 203.132C61.4141 209.616 57.7496 219.008 61.8566 228.484L62.2532 229.027C63.6451 228.454 66.4703 223.969 66.8383 222.481C68.4555 215.931 67.5163 210.225 69.1704 203.508L68.9494 203.132ZM100.459 208.094C113.021 203.498 109.788 190.503 95.1293 192.262C84.2419 193.448 72.058 199.901 73.4734 212.612C74.1309 218.514 77.7084 222.027 77.8399 228.227C84.7089 221.944 80.1022 218.903 80.7542 211.815C82.1044 207.569 83.5876 206.619 87.1651 204.102C86.7204 205.391 86.2092 206.778 85.8232 208.077C93.0724 208.136 96.8877 207.062 102.844 202.745C102.195 204.902 101.675 206.155 100.459 208.094ZM131.798 217.763C124.317 215.269 115.757 213.013 107.804 214.036C102.446 214.505 95.4077 215.97 90.6 218.448C97.3081 221.992 102.742 223.944 110.529 224.035C111.311 224.042 113.73 224.001 114.448 223.859C120.747 223.215 126.809 221.875 131.798 217.763ZM39.7322 175.969C38.2256 179.575 37.0618 184.303 35.9884 188.116C34.0873 194.867 29.8717 205.005 32.6871 211.805C33.101 212.778 33.5676 213.728 34.0858 214.65L35.6172 213.441C51.6115 197.589 41.2863 193.922 39.9813 176.285L39.7322 175.969ZM163.698 189.03C163.757 198.476 165.279 200.473 170.859 207.353H170.86C171.034 207.505 171.206 207.654 171.378 207.801C171.891 208.241 172.394 208.658 172.893 209.058C173.226 209.324 173.559 209.582 173.892 209.834C174.226 210.085 174.561 210.329 174.899 210.568C176.086 211.403 177.321 212.169 178.717 212.915C178.917 213.021 179.119 213.127 179.326 213.233L173.481 212.128V212.127C171.207 211.741 169.029 210.919 167.067 209.706C158.826 204.562 158.826 196.493 163.698 189.03ZM92.2746 140.907C89.391 142.076 86.777 143.888 83.9086 144.977C72.5895 149.272 60.6174 148.046 49.9621 142.802C42.3834 146.571 43.7828 155.017 47.2029 161.228C51.9327 169.818 60.5614 174.815 63.1699 184.765C64.629 190.687 65.4227 195.51 69.9258 199.937C73.386 196.452 75.892 193.605 80.4813 191.553C83.3137 190.286 86.133 189.231 88.8286 187.69C80.3052 178.968 88.2309 176.275 92.6201 168.937C94.8384 165.229 99.681 141.271 92.6 140.777L92.2746 140.907ZM24.6809 145.632C23.2651 153.506 26.4557 164.495 32.9123 169.603L34.207 168C38.1128 159.149 33.9284 154.782 27.6888 149.198C26.7169 148.328 25.7325 146.606 24.6809 145.632ZM198.105 140.025C193.876 143.347 195.176 145.202 193.651 149.688C192.314 153.628 188.698 157.307 188.261 161.668C188.007 163.791 189.346 166.58 190.189 168.539L190.797 169.106C192.104 168.702 193.57 165.359 194.343 164.292C197.099 160.489 200.802 143.729 198.105 140.025ZM143.773 122.553C152.772 122.08 163.229 123.252 169.985 129.619C173.777 133.193 175.077 134.736 179.467 137.795C177.606 138.461 175.45 138.726 173.281 139.473C174.229 140.987 174.606 141.762 175.341 143.401C174.422 142.936 173.701 142.76 172.717 142.467C170.845 142.946 168.079 144.237 166.168 144.988C161.463 146.837 155.24 148.051 150.199 147.792C139.253 146.896 137.24 144.401 128.209 139.888C123.332 141.334 123.75 143.455 122.44 147.664C122.096 147.415 121.756 147.155 121.424 146.886C119.946 145.68 119.272 144.074 119.164 142.266C118.986 139.223 119.506 131.574 121.744 129.294C126.271 124.679 137.792 123.088 143.773 122.553ZM166.733 137.058C159.337 132.634 152.75 129.722 143.802 130.855C139.712 131.409 134.053 133.484 130.757 135.943C138.151 140.117 146.123 141.603 154.521 141.016C159.552 140.228 162.264 139.522 166.733 137.058ZM90.2154 136.336C84.3314 132.631 77.9248 130.752 70.9404 131.597C65.8387 132.227 59.5205 133.722 55.6171 137.325C62.1065 140.505 67.5355 141.474 74.6722 140.953C80.549 140.245 84.8157 138.846 90.2154 136.336ZM15.7451 109.15C9.7332 119.454 16.755 134.38 27.8601 138.163C22.7915 131.282 20.8347 124.362 24.553 116.321C18.4827 113.398 19.6387 113.065 15.7451 109.15ZM30.0538 116.411C28.8105 123.913 29.3811 131.261 37.3337 134.866C38.0603 133.334 35.9235 123.806 35.233 121.806C34.5293 119.767 31.942 117.519 30.0538 116.411ZM210.813 117.766C208.419 122.096 205.222 128.735 203.637 133.496L203.839 133.728C207.959 130.613 210.019 128.062 210.894 122.794C211.082 121.661 211.318 118.949 210.964 117.928L210.813 117.766ZM204.858 84.4194C204.895 94.7626 203.319 98.9124 194.45 104.609C199.512 113.774 197.419 121.821 193.47 130.815C196.016 129.52 197.536 128.418 199.766 126.619C205.946 120.794 207.901 116.046 208.753 107.812C206.288 110.476 205.638 110.992 202.153 111.974C206.686 106.244 209.337 101.484 208.487 93.9285C208.259 91.8992 206.637 85.322 204.858 84.4194ZM38.0128 91.0502C33.7605 95.8482 31.7799 107.643 36.2638 112.51L36.6141 112.513C36.8643 106.101 39.8761 99.7981 40.992 93.5267C41.1454 92.6643 41.0778 92.4506 40.6188 91.7826C39.698 91.2655 39.0892 91.1277 38.0128 91.0502ZM22.6189 79.7878C18.802 85.6321 17.1353 90.9769 18.4671 98.0713C19.5014 103.579 22.6782 106.485 26.8899 109.753L26.4528 107.698C26.3431 100.345 28.4438 96.1817 33.3709 90.6336C29.0752 88.3061 26.6898 87.1767 24.1187 82.6312C23.6538 81.8092 23.1368 80.302 22.6189 79.7878ZM99.2423 61.9171C99.2922 62.2298 99.3532 62.5512 99.4246 62.8916C99.3532 62.5511 99.2922 62.2294 99.2423 61.9166V61.9171ZM99.1068 60.7662C99.1292 61.0725 99.1626 61.375 99.207 61.6839L99.176 61.4532C99.1468 61.2233 99.1236 60.9956 99.1068 60.7658V60.7662ZM99.3321 56.6354L99.2462 57.318C99.1043 58.5178 99.0506 59.443 99.0815 60.3024L99.0753 60.0664C99.0585 59.1139 99.1427 58.0604 99.3325 56.6349L99.3321 56.6354Z" fill="url(#paint0_linear_3_215)"/>
<defs>
<linearGradient id="paint0_linear_3_215" x1="124.163" y1="0.156276" x2="82.5384" y2="310.536" gradientUnits="userSpaceOnUse">
<stop stop-color="#D0A639"/>
<stop offset="0.386171" stop-color="#DCB559"/>
<stop offset="1" stop-color="#AF7B0B"/>
</linearGradient>
</defs>
</svg>
